<svg width="24" height="24" viewBox="0 0 24 24" fill="none" xmlns="http://www.w3.org/2000/svg">
<g clip-path="url(#clip0_102_1499)">
<path d="M12.0166 13.0333L16.2666 8.78327C16.4276 8.62227 16.622 8.54452 16.8498 8.55002C17.0776 8.55552 17.2721 8.63885 17.4331 8.80002C17.5942 8.96118 17.6748 9.15843 17.6748 9.39177C17.6748 9.6251 17.5942 9.82227 17.4331 9.98327L12.5998 14.8168C12.511 14.9056 12.4193 14.9681 12.3248 15.0043C12.2303 15.0403 12.1276 15.0583 12.0166 15.0583C11.9054 15.0583 11.8026 15.0403 11.7081 15.0043C11.6137 14.9681 11.5221 14.9056 11.4331 14.8168L6.58305 9.96677C6.42205 9.8056 6.3443 9.6111 6.3498 9.38327C6.3553 9.1556 6.43864 8.96118 6.5998 8.80002C6.76097 8.63885 6.95822 8.55827 7.19155 8.55827C7.42489 8.55827 7.62205 8.63885 7.78305 8.80002L12.0166 13.0333Z" fill="#333333"/>
</g>
<defs>
<clipPath id="clip0_102_1499">
<rect width="24" height="24" fill="white"/>
</clipPath>
</defs>
</svg>
