<svg width="24" height="24" viewBox="0 0 24 24" fill="none" xmlns="http://www.w3.org/2000/svg">
<g clip-path="url(#clip0_102_1488)">
<path d="M13.0333 11.9833L8.78333 7.73326C8.62233 7.57226 8.54458 7.37785 8.55008 7.15001C8.55558 6.92218 8.63891 6.72776 8.80008 6.56676C8.96124 6.4056 9.15849 6.32501 9.39183 6.32501C9.62516 6.32501 9.82233 6.4056 9.98333 6.56676L14.8168 11.4C14.9057 11.4888 14.9682 11.5805 15.0043 11.675C15.0403 11.7695 15.0583 11.8723 15.0583 11.9833C15.0583 12.0944 15.0403 12.1973 15.0043 12.2918C14.9682 12.3861 14.9057 12.4778 14.8168 12.5668L9.96683 17.4168C9.80566 17.5778 9.61116 17.6555 9.38333 17.65C9.15566 17.6445 8.96124 17.5612 8.80008 17.4C8.63891 17.2388 8.55833 17.0416 8.55833 16.8083C8.55833 16.5749 8.63891 16.3778 8.80008 16.2168L13.0333 11.9833Z" fill="#333333"/>
</g>
<defs>
<clipPath id="clip0_102_1488">
<rect width="24" height="24" fill="white"/>
</clipPath>
</defs>
</svg>
