<svg width="24" height="24" viewBox="0 0 24 24" fill="none" xmlns="http://www.w3.org/2000/svg">
<g clip-path="url(#clip0_102_1494)">
<path d="M3.83325 18C3.59725 18 3.39933 17.9198 3.2395 17.7595C3.07983 17.5993 3 17.4007 3 17.1637C3 16.9267 3.07983 16.7291 3.2395 16.5707C3.39933 16.4124 3.59725 16.3332 3.83325 16.3332H20.1667C20.4027 16.3332 20.6007 16.4134 20.7605 16.5738C20.9202 16.7341 21 16.9327 21 17.1695C21 17.4065 20.9202 17.6042 20.7605 17.7625C20.6007 17.9208 20.4027 18 20.1667 18H3.83325ZM3.83325 12.8332C3.59725 12.8332 3.39933 12.7532 3.2395 12.593C3.07983 12.4327 3 12.234 3 11.997C3 11.7602 3.07983 11.5626 3.2395 11.4043C3.39933 11.2459 3.59725 11.1667 3.83325 11.1667H20.1667C20.4027 11.1667 20.6007 11.2468 20.7605 11.407C20.9202 11.5673 21 11.766 21 12.003C21 12.2398 20.9202 12.4374 20.7605 12.5957C20.6007 12.7541 20.4027 12.8332 20.1667 12.8332H3.83325ZM3.83325 7.66675C3.59725 7.66675 3.39933 7.58658 3.2395 7.42625C3.07983 7.26592 3 7.06733 3 6.8305C3 6.5935 3.07983 6.39583 3.2395 6.2375C3.39933 6.07917 3.59725 6 3.83325 6H20.1667C20.4027 6 20.6007 6.08017 20.7605 6.2405C20.9202 6.40067 21 6.59925 21 6.83625C21 7.07325 20.9202 7.27092 20.7605 7.42925C20.6007 7.58758 20.4027 7.66675 20.1667 7.66675H3.83325Z" fill="#333333"/>
</g>
<defs>
<clipPath id="clip0_102_1494">
<rect width="24" height="24" fill="white"/>
</clipPath>
</defs>
</svg>
