<svg width="24" height="24" viewBox="0 0 24 24" fill="none" xmlns="http://www.w3.org/2000/svg">
<g clip-path="url(#clip0_102_1489)">
<path d="M10.9667 12.0167L15.2167 16.2667C15.3777 16.4277 15.4554 16.6222 15.4499 16.85C15.4444 17.0778 15.3611 17.2722 15.1999 17.4332C15.0388 17.5944 14.8415 17.675 14.6082 17.675C14.3748 17.675 14.1777 17.5944 14.0167 17.4332L9.18317 12.6C9.09434 12.5112 9.03184 12.4195 8.99567 12.325C8.95967 12.2305 8.94167 12.1277 8.94167 12.0167C8.94167 11.9056 8.95967 11.8027 8.99567 11.7082C9.03184 11.6139 9.09434 11.5222 9.18317 11.4332L14.0332 6.58324C14.1943 6.42224 14.3888 6.34449 14.6167 6.34999C14.8443 6.35549 15.0388 6.43882 15.1999 6.59999C15.3611 6.76115 15.4417 6.9584 15.4417 7.19174C15.4417 7.42507 15.3611 7.62224 15.1999 7.78324L10.9667 12.0167Z" fill="#333333"/>
</g>
<defs>
<clipPath id="clip0_102_1489">
<rect width="24" height="24" fill="white"/>
</clipPath>
</defs>
</svg>
