<svg width="24" height="24" viewBox="0 0 24 24" fill="none" xmlns="http://www.w3.org/2000/svg">
<g clip-path="url(#clip0_102_1490)">
<path d="M11.9834 10.9667L7.73345 15.2167C7.57245 15.3777 7.37803 15.4555 7.1502 15.45C6.92236 15.4445 6.72794 15.3612 6.56694 15.2C6.40578 15.0388 6.3252 14.8416 6.3252 14.6082C6.3252 14.3749 6.40578 14.1777 6.56694 14.0167L11.4002 9.18323C11.489 9.0944 11.5807 9.0319 11.6752 8.99573C11.7697 8.95973 11.8724 8.94173 11.9834 8.94173C12.0946 8.94173 12.1974 8.95973 12.2919 8.99573C12.3863 9.0319 12.4779 9.0944 12.5669 9.18323L17.4169 14.0332C17.5779 14.1944 17.6557 14.3889 17.6502 14.6167C17.6447 14.8444 17.5614 15.0388 17.4002 15.2C17.239 15.3612 17.0418 15.4417 16.8084 15.4417C16.5751 15.4417 16.3779 15.3612 16.2169 15.2L11.9834 10.9667Z" fill="#333333"/>
</g>
<defs>
<clipPath id="clip0_102_1490">
<rect width="24" height="24" fill="white"/>
</clipPath>
</defs>
</svg>
